<svg xmlns="http://www.w3.org/2000/svg" width="300.178" height="45.133" viewBox="0 0 300.178 45.133">
  <g id="Grupo_79" data-name="Grupo 79" transform="translate(251.871 -268.177)">
    <g id="Grupo_78" data-name="Grupo 78" transform="translate(-251.871 268.177)">
      <g id="Grupo_50" data-name="Grupo 50" transform="translate(115.794 9.836)">
        <path id="Caminho_41" data-name="Caminho 41" d="M65.307,296.8h7.625v20.83H86.253v6.681H65.307Z" transform="translate(-65.307 -296.798)" fill="#fff"/>
      </g>
      <g id="Grupo_51" data-name="Grupo 51" transform="translate(146.422 9.837)">
        <rect id="Ret창ngulo_20" data-name="Ret창ngulo 20" width="7.662" height="27.511" transform="translate(0 0)" fill="#fff"/>
      </g>
      <g id="Grupo_52" data-name="Grupo 52" transform="translate(162.639 9.836)">
        <path id="Caminho_42" data-name="Caminho 42" d="M188.378,296.8h8.529l6.249,17.41L209.4,296.8h8.372l-11.163,27.708h-7.073Z" transform="translate(-188.378 -296.798)" fill="#fff"/>
      </g>
      <g id="Grupo_53" data-name="Grupo 53" transform="translate(209.259 14.821)">
        <path id="Caminho_43" data-name="Caminho 43" d="M310.855,324.734l1.8-2.148a7.861,7.861,0,0,0,5.395,2.221c1.854,0,3.026-.854,3.026-2.148v-.049c0-1.218-.682-1.878-3.856-2.612-3.636-.879-5.688-1.952-5.688-5.1v-.048c0-2.929,2.441-4.955,5.833-4.955a9.475,9.475,0,0,1,6.2,2.148l-1.611,2.268a7.762,7.762,0,0,0-4.636-1.756c-1.759,0-2.783.9-2.783,2.026v.048c0,1.317.781,1.9,4.051,2.684,3.612.879,5.492,2.173,5.492,5v.049c0,3.2-2.514,5.1-6.1,5.1a10.519,10.519,0,0,1-7.126-2.734" transform="translate(-310.855 -309.894)" fill="#fff"/>
      </g>
      <g id="Grupo_54" data-name="Grupo 54" transform="translate(225.569 14.942)">
        <path id="Caminho_44" data-name="Caminho 44" d="M365.518,320.636l-2.953-6.835-2.929,6.835Zm-4.3-10.424h2.783l7.517,17.209h-3.172l-1.733-4.125h-8.081l-1.755,4.125h-3.076Z" transform="translate(-353.705 -310.212)" fill="#fff"/>
      </g>
      <g id="Grupo_55" data-name="Grupo 55" transform="translate(246.81 10.134)">
        <path id="Caminho_45" data-name="Caminho 45" d="M418.343,297.581l2.686,1.172L417.9,301.12h-2.294Zm-8.835,14.768v-9.837h3v9.715c0,3.172,1.634,4.882,4.319,4.882,2.661,0,4.3-1.612,4.3-4.76v-9.837h3v9.69c0,5.1-2.88,7.666-7.346,7.666-4.442,0-7.274-2.564-7.274-7.519" transform="translate(-409.508 -297.581)" fill="#fff"/>
      </g>
      <g id="Grupo_56" data-name="Grupo 56" transform="translate(266.928 15.065)">
        <path id="Caminho_46" data-name="Caminho 46" d="M468.733,324.888a5.569,5.569,0,0,0,5.931-5.762v-.048a5.606,5.606,0,0,0-5.931-5.809h-3.369v11.619Zm-6.371-14.353h6.371c5.369,0,9.08,3.685,9.08,8.493v.049c0,4.809-3.711,8.543-9.08,8.543h-6.371Z" transform="translate(-462.362 -310.535)" fill="#fff"/>
      </g>
      <g id="Grupo_57" data-name="Grupo 57" transform="translate(287.388 15.065)">
        <path id="Caminho_47" data-name="Caminho 47" d="M516.113,310.535h12.668v2.686h-9.666v4.442h8.569v2.683h-8.569v4.591H528.9v2.683h-12.79Z" transform="translate(-516.113 -310.535)" fill="#fff"/>
      </g>
      <g id="Grupo_58" data-name="Grupo 58" transform="translate(200.456 2.56)">
        <rect id="Ret창ngulo_21" data-name="Ret창ngulo 21" width="0.385" height="42.573" transform="translate(0 0)" fill="#fff"/>
      </g>
      <g id="Grupo_59" data-name="Grupo 59" transform="translate(0.485 15.105)">
        <path id="Caminho_48" data-name="Caminho 48" d="M252.333,181.253a36.4,36.4,0,0,1-17.862,9.434c-14.38,3.113-26.03-8.036-37.258-15.154-5.422-3.439-11.292-6.771-17.935-5.87-8.454,1.147-16.636,5.73-23.313,10.892-1.574,1.217.631,3.386,2.187,2.184,6.761-5.227,16.12-10.708,24.97-10.1,3.46.236,6.723,2.122,9.651,3.81,5.384,3.1,10.487,6.722,15.657,10.156,9.9,6.578,19.9,9.677,31.512,5.785a38.317,38.317,0,0,0,14.576-8.95,1.546,1.546,0,0,0-2.185-2.184" transform="translate(-155.424 -169.514)" fill="#fff"/>
      </g>
      <g id="Grupo_60" data-name="Grupo 60" transform="translate(0.029 20.184)">
        <path id="Caminho_49" data-name="Caminho 49" d="M154.559,191.52c9.823,12.636,26.578,19.774,41.413,11.606,9.337-5.139,17.806-14.051,28.405-16.652,4.364-1.071,9.006.635,13.158,1.767,4.734,1.289,10.379,2.26,15.014,3.881,1.885.659,2.69-2.328.822-2.98-8.006-2.8-18.113-6.244-26.712-6.06-7.5.158-14.536,5.771-20.483,9.675-5.758,3.777-11.373,8.388-18.06,10.356-5.889,1.733-12.132.305-17.493-2.333a41.194,41.194,0,0,1-13.878-11.443c-1.223-1.573-3.393.632-2.186,2.184" transform="translate(-154.205 -183.074)" fill="#fff"/>
      </g>
      <g id="Grupo_61" data-name="Grupo 61" transform="translate(0.119 14.347)">
        <path id="Caminho_50" data-name="Caminho 50" d="M155.1,181.984c14.148,10.8,33.443,2.657,46.619-5.149a47.631,47.631,0,0,1,13.407-5.79c6.8-1.592,14.044.064,20.6,1.966,5.573,1.617,12.408,4.378,16.3,8.98,1.289,1.522,3.464-.673,2.186-2.184-3.122-3.686-8.139-6.2-12.51-7.941-10.285-4.1-21.662-6.2-32.3-2.336-9.757,3.545-17.481,10.76-27.737,13.266-7.8,1.9-18.294,1.644-25.005-3.481-1.584-1.211-3.12,1.475-1.559,2.668" transform="translate(-154.448 -167.488)" fill="#fff"/>
      </g>
      <g id="Grupo_62" data-name="Grupo 62">
        <path id="Caminho_51" data-name="Caminho 51" d="M254.384,156.38c-8.642-12.988-24.254-29.29-41.367-26.983-11.661,1.575-19.956,10.271-28.619,17.411-6.291,5.186-19.612,14.2-28.012,8.494-1.653-1.123-3.2,1.556-1.558,2.669,5.411,3.673,13.579,1.362,18.959-.857,10.936-4.515,18.485-14.17,28.287-20.441,19.3-12.343,39.182,5.545,49.642,21.266a1.546,1.546,0,0,0,2.575-1.709Z" transform="translate(-154.129 -129.177)" fill="#fff"/>
      </g>
    </g>
  </g>
</svg>
